# xmcd CD database file
#
# Track frame offsets:
#	150
#	20667
#	38202
#	62902
#
# Disc length: 936 seconds
#
# Revision: 0
# Processed by: cddbd v1.5.1PL0 Copyright (c) Steve Scherf et al.
# Submitted via: CDex 1.51
#
DISCID=3103a604
DTITLE=Lab LIFe - ステレオ
DYEAR=1998
DGENRE=JPop
TTITLE0=ステレオ
TTITLE1=ギターポップ
TTITLE2=1mmの星はたったひとり
TTITLE3=Data
EXTD=YEAR: 1998
EXTT0=
EXTT1=
EXTT2=
EXTT3=
PLAYORDER=
